<?xml version="1.0" encoding="utf-8" ?>
<svg xmlns="http://www.w3.org/2000/svg" xmlns:xlink="http://www.w3.org/1999/xlink" width="578" height="569">
	<path fill="#F4EDE2" transform="scale(1.1748 1.17562)" d="M0 0L491.562 0C492.399 1.47569 491.999 4.31595 491.999 6.02109L492.003 385.245L492.001 460.277C492 464.072 492.409 481.768 491.845 483.448C491.779 483.643 491.663 483.823 491.562 484L0 484L0 0Z"/>
	<path fill="#A45729" transform="scale(1.1748 1.17562)" d="M97.3412 24.3007C116.624 22.0042 146.464 37.7451 162.395 47.7633C165.64 49.8037 168.743 52.078 171.852 54.317C173.529 55.5243 175.203 56.8989 177.034 57.8611C177.106 57.8989 177.179 57.9346 177.252 57.9714C184.995 56.1963 192.505 53.8638 200.356 52.4309C225.527 48.0255 251.258 47.8639 276.483 51.9526C284.989 53.3791 293.261 55.4098 301.577 57.662C303.045 56.7484 304.401 55.4402 305.758 54.3505C307.821 52.6748 309.957 51.0903 312.159 49.6016C326.507 39.7606 362.631 21.2177 380.08 24.5946C384.297 25.4109 387.358 27.814 389.7 31.3385C399.279 45.7566 397.486 88.4352 395.478 105.639C394.595 113.208 393.006 120.638 391.483 128.097C394.169 133.645 397.671 138.814 400.345 144.395C410.273 165.116 414.024 185.279 414.076 208.085C419.196 208.722 428.212 209.312 431.474 213.698C432.835 215.527 433.07 217.835 432.739 220.037C432.435 222.055 431.569 223.895 429.882 225.111C425.728 228.106 416.662 225.919 411.912 225.117C410.099 232.278 407.579 238.976 404.838 245.821C409.373 247.596 417.606 249.884 419.883 254.572C421.015 256.901 420.79 259.844 419.898 262.21C419.081 264.376 417.546 266.45 415.334 267.324C410.118 269.383 400.323 262.127 395.257 260.043C386.692 273.919 368.983 286.878 354.105 293.111C356.56 297.345 359.453 301.324 361.875 305.586C371.402 322.128 377.701 340.328 380.437 359.22C381.362 365.763 381.275 372.374 382.115 378.912C393.795 369.025 388.382 349.727 390.778 336.481C391.907 330.513 394.418 324.892 398.108 320.067C403.757 312.622 413.17 305.677 422.617 304.41C426.57 303.88 430.306 304.3 433.558 306.834C437.616 309.994 439.122 314.655 439.758 319.57C439.914 326.5 436.678 332.754 436.284 339.619C436.018 344.268 436.626 349.064 437.028 353.69C438.248 367.695 439.107 381.614 433.354 394.848C424.328 415.607 402.058 426.159 380.469 427.828C377.136 428.077 373.792 428.169 370.45 428.103C367.388 428.02 363.736 427.484 360.724 428.075C357.877 428.634 355.133 430.074 352.443 431.135C348.561 432.657 344.5 433.674 340.358 434.16C331.433 435.273 322.142 434.814 313.159 434.814C307.502 434.815 301.343 435.275 295.772 434.421C292.354 433.898 289.254 432.717 286.102 431.357C281.931 432.681 277.719 433.888 273.367 434.446C267.232 435.232 260.677 434.823 254.496 434.819C248.615 434.815 242.471 435.152 236.62 434.579C233.755 434.299 230.945 433.321 228.116 432.786C226.133 432.412 224.017 432.417 222.003 432.409L201.069 432.456C196.182 432.444 191.192 432.21 186.324 432.55C182.229 432.836 178.5 434.543 174.291 434.732C168.733 434.981 163.102 434.699 157.534 434.724C146.715 434.772 133.673 436.494 125.045 428.434C119.973 423.696 116.783 415.917 116.596 409.021C116.315 398.656 123.762 392.41 130.278 385.63C129.982 381.809 129.24 377.969 128.667 374.179C127.878 369.01 127.206 363.823 126.649 358.623C124.895 342.024 125.876 325.154 128.393 308.687C129.042 304.446 129.635 300.152 130.696 295.991C127.244 294.358 123.675 292.982 120.25 291.281C103.956 283.19 92.8506 273.928 82.2042 259.172C76.761 261.111 71.8845 264.386 66.4926 266.378C63.9957 267.3 61.4395 267.802 58.9427 266.538C57.181 265.645 55.9664 264.006 55.3644 262.153C54.5602 259.679 54.6988 256.818 55.9182 254.502C58.9818 248.685 67.9376 247.092 73.7341 245.291C70.1109 238.868 67.6123 231.468 65.6829 224.375C61.3494 224.973 51.8845 227.542 48.1495 224.706C46.2534 223.267 45.2527 220.863 45.0089 218.547C44.7734 216.311 45.1166 213.68 46.6706 211.94C49.9413 208.278 58.6172 208.242 63.2793 207.94C62.97 185.985 67.0996 164.809 76.3426 144.832C78.7646 139.598 82.0063 134.789 84.403 129.582L84.5573 129.243C83.2976 120.493 81.3499 111.941 80.4741 103.109C78.9202 87.4405 78.3553 43.7433 87.0528 30.945C89.6332 27.1481 92.883 25.171 97.3412 24.3007Z"/>
	<path fill="#DF9D4A" transform="scale(1.1748 1.17562)" d="M102.351 44.2055C106.683 44.3234 111.537 46.196 115.655 47.4567C130.474 51.9937 143.762 58.629 156.55 67.3471C160.341 69.9313 163.75 73.121 167.625 75.5572C169.311 76.6179 171.508 77.7067 173.521 77.7972C179.615 78.0714 187.126 74.928 193.108 73.5034C197.284 72.5093 201.528 71.8533 205.704 70.874C210.767 69.7298 222.2 69.2971 227.801 69.2974C235.518 68.3951 243.465 68.7353 251.216 68.7713C255.588 68.71 269.227 69.531 272.956 70.834C277.55 71.6136 282.112 72.5663 286.633 73.69C291.002 74.8041 299.683 78.1333 303.746 77.9844C305.368 77.925 307.212 76.8533 308.566 75.9938C311.783 73.9527 314.577 71.1607 317.69 68.9374C324.837 63.8336 332.623 59.3139 340.47 55.3804C350.877 50.1642 362.614 45.7931 374.212 44.4098C379.843 59.6209 378.454 92.7335 375.476 108.91C374.432 114.581 371.076 123.53 371.822 128.949C372.866 136.535 378.338 142.25 381.926 148.711C389.803 162.896 394.498 179.684 395.633 195.843C395.904 199.695 395.8 203.623 395.823 207.486C391.657 207.416 385.107 206.758 381.596 209.296C379.808 210.588 378.694 212.72 378.357 214.87C378.056 216.783 378.314 218.923 379.527 220.494C382.032 223.739 389.923 223.618 393.803 224.114C391.94 229.756 389.634 235.02 387.095 240.388C383.022 239.494 376.142 237.349 372.145 238.943C369.925 239.829 368.242 241.744 367.424 243.963C366.83 245.573 366.723 247.438 367.525 248.999C369.101 252.068 373.416 253.027 376.437 254.037C373.182 260.21 364.043 267.451 358.147 271.231C353.873 273.972 349.166 276.389 344.547 278.496C340.419 280.378 335.051 281.748 331.779 284.981C329.975 286.763 329.196 288.444 329.248 291.006C329.387 297.812 334.828 298.905 338.788 302.815C341.749 305.738 344.097 309.815 346.265 313.357C357.879 332.419 364.103 354.274 364.274 376.594C364.343 387.368 363.023 400.643 355.033 408.632C351.241 412.423 345.871 414.519 340.678 415.504C334.619 416.653 328.055 416.099 321.922 416.05L298.035 415.992C299.684 409.52 302.858 403.122 303.757 396.515C304.13 393.768 303.825 390.805 302.045 388.571C300.689 386.869 298.653 385.972 296.509 385.82C286.373 385.099 285.573 402.892 282.092 409.259C281.357 410.603 280.294 411.788 279.128 412.772C273.561 417.473 265.632 416.61 258.853 416.049C258.386 413.716 258.465 411.278 257.419 409.081C256.905 408 256.041 407.261 254.885 406.937C252.803 406.352 250.345 407.138 248.522 408.148C245.154 410.013 244.591 412.844 243.567 416.237C240.201 416.311 236.882 416.135 233.526 415.909C229.47 408.256 236.47 406.216 239.614 400.21C243.565 392.661 244.051 374.151 244.188 365.62C244.253 361.589 243.682 358.712 240.765 355.771C239.114 354.106 237.034 352.654 234.587 352.718C231.611 352.796 229.551 355.692 228.705 358.271C227.782 361.089 227.719 364.28 227.557 367.22C227.186 373.92 227.237 383.847 224.594 389.871C223.006 393.491 219.943 395.593 217.274 398.333C212.814 402.912 213.153 409.408 213.312 415.319C208.588 415.496 203.866 415.48 199.139 415.492C199.505 411.773 200.384 408.057 200.909 404.347C201.816 397.595 202.256 390.788 202.226 383.976C202.153 376.609 201.924 359.222 196.56 354.187C195.118 352.836 193.184 352.136 191.211 352.251C186.94 352.538 184.689 357.398 184.17 361.142C183.454 366.306 184.376 371.919 184.655 377.121C185.201 387.3 185.528 407.088 178.573 415.016C178.504 415.095 178.433 415.172 178.363 415.25C173.257 416.198 167.641 415.939 162.453 415.975C161.892 412.612 161.08 408.776 158.524 406.373C157.355 406.16 156.19 405.939 154.996 406.004C149.019 406.333 149.34 410.6 146.215 413.939C145.006 415.23 143.331 415.546 141.627 415.528C140.433 415.515 139.26 415.257 138.418 414.352C137.155 412.993 136.47 410.939 136.659 409.099C137.205 403.775 143.04 401.106 146.672 398.082C149.178 395.996 150.798 393.587 150.642 390.212C150.395 384.868 148.516 379.616 147.684 374.343C145.183 358.489 143.494 344.771 144.344 328.688C144.752 320.967 145.933 312.81 147.941 305.343C149 301.407 151.268 297.33 151.526 293.248C151.743 289.805 150.404 286.648 147.763 284.418C143.86 281.122 138.551 279.977 133.942 278.023C121.179 272.626 109.877 264.283 100.962 253.676C103.364 253.18 108.43 252.942 109.926 250.823C110.98 249.329 110.967 246.613 110.615 244.871C110.237 242.996 109.204 241.447 107.551 240.468C103.441 238.032 96.0245 239.127 91.6288 240.173C88.5212 235.04 86.5992 229.329 85.035 223.569C89.2013 223.357 96.8451 223.812 100.264 221.158C101.865 219.915 102.58 218.111 102.755 216.136C102.932 214.149 102.681 212.168 101.29 210.64C98.0698 207.102 86.8205 207.46 82.018 207.22C81.4434 186.274 85.9927 166.729 95.6778 148.115C98.5386 142.617 103.354 137.715 104.157 131.342C104.964 124.942 101.446 117.332 100.384 110.925C97.9334 96.1355 96.4963 57.1965 102.351 44.2055Z"/>
	<path fill="#CC6F31" transform="scale(1.1748 1.17562)" d="M251.216 68.7713C255.588 68.71 269.227 69.531 272.956 70.834C272.844 72.9441 273.103 75.2081 273.177 77.3331C273.446 85.0526 274.336 99.4704 268.848 105.416C267.103 107.331 264.643 108.437 262.052 108.472C259.582 108.518 257.198 107.562 255.443 105.823C248.938 99.4519 251.27 77.5763 251.216 68.7713Z"/>
	<path fill="#CC6F31" transform="scale(1.1748 1.17562)" d="M205.704 70.874C210.767 69.7298 222.2 69.2971 227.801 69.2974C227.784 69.3936 227.765 69.4896 227.749 69.5861C227.294 72.3495 227.471 75.3685 227.416 78.176C227.298 84.2356 227.147 96.4289 224.482 101.807C223.784 103.215 222.625 104.459 221.354 105.369C219.455 106.73 216.862 107.536 214.534 107.055C212.085 106.55 210.049 104.703 208.763 102.617C205.038 96.5734 206.06 78.592 205.704 70.874Z"/>
	<path fill="#A45729" transform="scale(1.1748 1.17562)" d="M153.758 112.285C155.125 112.197 156.493 112.308 157.805 112.721C159.676 113.309 161.119 114.5 161.947 116.288C164.531 121.865 160.413 129.954 158.438 135.312C162.458 136.572 166.513 138.044 170.433 139.586C172.311 135.031 175.362 124.806 179.661 122.502C181.344 121.599 183.321 121.616 185.116 122.168C186.603 122.624 187.761 123.543 188.423 124.965C190.511 129.452 185.888 141.147 184.323 145.851C187.704 148.054 193.694 149.184 195.195 153.39C195.981 155.592 195.598 158.554 194.587 160.623C193.825 162.184 192.52 163.414 190.847 163.938C186.919 165.168 181.995 161.289 178.614 159.468C177.38 161.86 176.178 164.287 174.821 166.611C172.234 171.041 169.152 176.059 163.856 177.442C163.224 177.339 162.573 177.24 161.979 176.992C160.439 176.35 159.201 175.169 158.652 173.58C156.988 168.768 162.534 159.49 164.749 154.969C161.103 151.979 156.344 150.846 152.335 148.451C148.217 155.037 144.286 166.213 136.385 168.552C135.453 168.337 134.551 168.009 133.699 167.574C132.124 166.766 130.655 165.494 130.188 163.722C129.186 159.923 136.73 148.142 138.767 144.47C135.459 142.339 130.172 141.513 128.157 137.97C127.348 136.547 127.076 134.866 127.573 133.288C128.025 131.85 129.038 130.711 130.371 130.019C134.295 127.985 139.383 130.57 143.284 131.717C146.454 125.86 147.434 115.519 153.758 112.285Z"/>
	<path fill="#A45729" transform="scale(1.1748 1.17562)" d="M303.519 310.086C305.402 310.208 307.313 310.743 308.758 312.015C310.06 313.16 310.619 314.967 310.678 316.662C310.863 321.97 304.567 327.094 301.134 330.655C304.859 333.875 315.598 341.095 316.994 345.177C317.533 346.754 317.191 348.575 316.426 350.018C315.644 351.494 314.31 352.867 312.666 353.331C308.376 354.544 297.029 343.874 292.793 341.34C290.919 343.314 289.279 345.515 287.403 347.504C290.702 351.007 297.975 356.363 299.043 361.171C299.34 362.512 299.163 363.829 298.413 364.992C297.161 366.931 294.806 367.865 292.658 368.366C286.248 366.776 282.334 360.813 277.07 357.263C275.241 358.649 273.682 360.627 272.068 362.269C270.677 363.495 268.982 364.446 267.143 364.784C265.331 365.117 263.674 364.735 262.164 363.682C260.246 362.343 258.807 360.147 258.479 357.818C257.732 352.526 263.001 349.187 265.838 345.516L266.041 345.251C262.174 341.128 257.424 336.068 255.859 330.557C256.352 328.74 256.981 326.805 258.302 325.406C259.089 324.572 260.115 324.027 261.277 324.011C265.781 323.951 272.816 333.614 276.161 336.741C278.174 334.728 279.852 332.677 281.388 330.277C278.901 326.472 275.345 323.413 272.974 319.548C272.066 318.068 271.372 316.28 271.869 314.536C272.358 312.817 273.588 312.093 275.065 311.3C281.067 312.692 284.968 317.155 289.494 321.007C294.026 317.737 297.711 311 303.519 310.086Z"/>
	<path fill="#393F31" transform="scale(1.1748 1.17562)" d="M147.088 183.541C153.484 182.976 157.725 188.303 162.027 192.219C164.497 194.475 167.047 196.642 169.673 198.714C174.454 195.056 181.654 185.34 187.258 184.248C189.175 183.874 191.07 184.372 192.662 185.473C194.429 186.696 195.986 188.616 196.351 190.78C197.509 197.647 186.289 205.955 182.606 211.089C182.546 211.173 182.488 211.258 182.429 211.343C186.13 216.201 192.059 219.382 194.943 224.84C196.004 226.85 196.609 229.312 195.878 231.533C195.103 233.887 193.051 235.327 190.934 236.384C190.357 236.601 189.762 236.765 189.155 236.873C183.728 237.859 177.596 230.549 173.891 227.196C172.294 225.751 170.646 224.446 168.86 223.242C163.9 226.936 156.853 236.879 150.913 237.51C148.994 237.711 147.08 237.093 145.643 235.808C144.012 234.371 142.964 232.164 142.855 229.998C142.558 224.061 152.17 214.662 155.909 210.332C151.53 206.941 143.004 199.669 141.171 194.502C140.407 192.349 140.566 190.159 141.609 188.129C142.868 185.678 144.541 184.398 147.088 183.541Z"/>
	<path fill="#393F31" transform="scale(1.1748 1.17562)" d="M338.891 184.86C340.779 184.756 342.325 185.009 343.925 186.077C345.576 187.175 346.72 188.888 347.1 190.834C347.406 192.432 347.119 194.018 346.191 195.364C344.328 198.063 341.305 198.555 338.321 199.101C337.505 206.556 336.107 212.714 330.631 218.22C326.261 222.613 320.518 225.46 314.253 225.398C306.848 225.325 300.866 222.112 295.78 216.897C291.517 211.994 289.696 206.664 288.937 200.298C287.831 200.273 286.687 200.216 285.592 200.064C283.207 199.733 280.785 198.611 279.353 196.617C278.381 195.263 277.91 193.615 278.239 191.963C278.667 189.821 280.203 188.247 281.932 187.052C287.651 186.69 293.478 187.017 299.216 186.887C312.46 186.665 325.693 185.989 338.891 184.86Z"/>
	<path fill="#393F31" transform="scale(1.1748 1.17562)" d="M236.42 210.359C240.857 210.012 246.965 209.761 251.186 211.237C253.909 212.19 256.254 214.142 257.467 216.787C258.372 218.76 258.62 220.972 258.343 223.115C257.104 232.671 247.748 230.384 245.312 237.039C244.467 239.347 244.322 242.577 245.434 244.826C246.75 247.489 253.781 248.846 256.434 249.775C260.314 251.132 265.236 253.11 267.041 257.115C267.979 259.197 268.13 261.709 267.222 263.828C266.476 265.593 265.043 266.977 263.253 267.661C261.666 268.264 259.911 268.234 258.317 267.675C253.912 266.13 248.174 260.105 242.6 257.609C233.322 254.735 226.922 265.914 219.44 266.824C217.29 267.086 214.815 266.331 213.143 264.965C211.773 263.847 210.904 262.278 210.759 260.508C210.61 258.681 211.166 256.861 212.117 255.313C216.847 247.611 227.929 249.672 231.813 244.576C233.138 242.838 233.1 240.572 232.784 238.508C231.914 232.829 227.192 232.779 223.374 229.838C221.026 228.03 219.649 225.437 219.312 222.506C218.995 219.749 219.599 216.621 221.45 214.492C224.858 210.573 231.625 210.678 236.42 210.359Z"/>
	<path fill="#DF9D4A" transform="scale(1.1748 1.17562)" d="M419.788 323.692L420.132 323.792C420.888 325.393 419.415 336.519 419.387 339.267C419.341 343.675 419.859 348.12 420.187 352.513C420.524 357.034 420.696 361.594 420.812 366.126C421.08 376.619 419.962 387.895 412.354 395.811C403.834 404.581 392.233 409.686 380.011 410.042C379.223 410.061 378.508 410.148 377.784 409.779C377.417 408.819 378.015 407.502 378.271 406.497C382.09 391.499 380.83 398.974 391.453 392.539C396.081 389.735 399.152 385.664 401.299 380.756C405.525 371.097 405.543 361.352 405.74 351.027C405.812 347.28 405.788 343.466 406.703 339.807C408.554 332.402 413.367 327.522 419.788 323.692Z"/>
</svg>
