<?xml version="1.0" encoding="utf-8" ?>
<svg xmlns="http://www.w3.org/2000/svg" xmlns:xlink="http://www.w3.org/1999/xlink" width="507" height="497">
	<path fill="#FEFEFE" d="M0 0L506.562 0C506.904 0.601695 506.962 1.0075 506.981 1.68787C507.199 9.77082 507 17.9089 507 25.9973L507.002 73.5695L507.003 217.104L507.003 436.889L507 480.852C507 483.239 507.382 494.846 506.845 496.446C506.776 496.649 506.669 496.812 506.562 497L0 497L0 0Z"/>
	<path fill="#182711" d="M111.898 31.5441C112.004 31.5372 112.11 31.5287 112.217 31.5233C124.12 30.9223 156.386 51.6422 166.821 58.7643C172.522 62.6558 178.019 66.8818 183.484 71.0961C187.031 73.832 190.649 76.4744 194.007 79.4442C200.82 77.5784 207.559 75.7098 214.499 74.3498C245.177 68.3373 279.317 68.1104 309.876 74.9843C316.669 76.5123 323.259 78.5449 329.847 80.7762C338.342 72.2775 348.012 65.1171 357.705 58.0659C366.626 51.5767 395.717 31.0466 405.59 32.8762C408.751 33.4619 411.22 35.7704 412.953 38.36C423.157 53.6094 419.901 99.5955 417.65 117.658C416.611 126 414.991 134.212 413.33 142.446C415.859 147.687 418.428 152.918 420.524 158.351C429.316 181.136 431.952 205.512 430.693 229.771C435.844 229.637 448.326 228.034 452.27 230.78C453.267 231.475 453.867 232.425 454.05 233.627C454.281 235.153 454.051 236.72 453.081 237.957C449.787 242.156 433.704 243.014 428.342 243.785C426.855 249.928 425.032 255.702 422.681 261.569C429.204 263.485 442.637 266.565 446.831 271.671C447.795 272.844 448.322 274.258 448.103 275.787C447.849 277.46 446.907 278.95 445.504 279.897C444.524 280.572 443.307 280.987 442.112 280.974C435.377 280.898 423.44 275.716 415.884 274.265C413.175 279.627 409.249 284.749 405.214 289.16C391.723 303.906 375.68 311.835 356.976 318.024C357.723 330.691 358.528 343.45 357.229 356.105C356.252 365.628 354.73 375.117 353.533 384.617C352.99 388.932 352.296 393.314 352.168 397.662C354.549 399.427 357.045 401.149 359.153 403.24C363.596 407.647 365.573 413.81 365.582 419.99C365.589 425.459 363.13 430.472 359.271 434.273C352.226 441.212 345.054 441.354 335.763 441.305L323.125 441.259C319.739 441.286 316.32 441.354 312.961 440.861C308.874 440.262 304.961 439.105 300.796 439.046C292.685 438.931 284.263 438.595 276.178 439.128C272.834 439.348 269.595 440.585 266.261 440.956C259.655 441.691 242.38 441.473 236.044 440.21C232.977 439.599 230.195 438.578 227.468 437.059C223.637 438.958 220.058 440.529 215.757 441.02C209.321 441.755 202.434 441.262 195.937 441.241C185.331 441.206 171.372 442.015 161.116 439.935C158.593 439.424 156.088 438.556 153.739 437.512C151.437 436.49 148.911 435.012 146.422 434.592C143.229 434.053 136.088 434.988 132.16 434.975C116.179 434.925 99.6427 430.026 87.0205 420.039C73.8306 409.603 64.2924 393.359 62.3749 376.571C60.2382 359.214 65.1719 341.727 76.0653 328.047C79.2315 324.134 83.2434 321.322 88.3557 320.823C93.0285 320.368 97.732 322.106 101.374 324.961C111.599 332.975 113.756 346.378 114.991 358.524C115.482 363.352 115.776 368.419 117.417 373.023C118.946 377.313 121.767 380.707 125.216 383.603C125.701 378.3 125.647 373.016 126.374 367.718C129.15 347.477 137.574 327.425 151.574 312.372C148.233 311.265 144.88 309.401 141.754 307.788C125.046 299.169 116.535 290.154 105.719 275.148C99.4081 276.487 83.0803 282.844 77.7282 280.281C76.0585 279.477 74.7964 278.017 74.2424 276.248C73.6949 274.575 73.8795 272.748 74.7507 271.217C77.4985 266.478 93.7904 262.86 99.3002 261.557C96.1479 255.465 94.2105 248.621 92.5331 241.999C87.1946 241.361 73.8314 241.622 70.1469 237.832C68.9303 236.584 68.2962 234.881 68.4003 233.141C68.4923 231.633 69.1004 230.188 70.2568 229.189C73.8177 226.111 85.2486 227.283 89.879 227.53C88.0068 205.727 90.9343 183.778 98.4556 163.227C99.7571 159.724 105.682 147.129 105.835 144.793C106.071 141.204 104.172 135.638 103.373 131.938C102.551 128.098 101.799 124.242 101.119 120.374C97.6217 100.458 94.3931 54.9141 104.89 37.103C106.584 34.2289 108.646 32.4091 111.898 31.5441Z"/>
	<path fill="#FEFEFE" d="M119.863 55.8976C126.49 57.629 135.442 63.3293 141.429 66.9509C148.408 71.1729 155.451 75.3654 162.247 79.881C167.315 83.2481 172.232 86.8695 177.17 90.4244C184.73 95.3522 184.328 102.245 195.445 99.8699C199.39 99.027 203.244 97.6779 207.134 96.6077C211.067 95.5256 215.097 94.6826 219.096 93.8882C245.531 88.6382 275.435 88.6097 301.959 93.2221C306.939 94.0508 311.875 95.1206 316.751 96.4277C322.152 97.8418 330.323 101.465 335.628 100.956C340.852 100.454 346.257 93.3648 350.512 90.3027C358.326 84.2942 390.456 57.9429 398.585 57.4715C400.259 58.8431 400.323 64.0765 400.54 66.2747C402.463 85.7981 401.639 106.26 398.745 125.648C398.12 129.837 397.126 133.938 396.375 138.099C395.836 140.399 394.932 143.169 395.514 145.512C396.294 148.648 398.399 151.791 399.827 154.679C401.147 157.412 402.335 160.206 403.388 163.052C411.591 185.314 414.44 207.283 412.123 230.908C407.555 231.295 398.17 231.509 395.216 235.2C394.249 236.409 394.029 237.895 394.285 239.391C394.611 241.295 395.688 243.733 397.367 244.818C400.006 246.524 405.247 245.21 408.264 244.946C407.137 248.925 405.771 253.18 403.796 256.824C399.819 256.784 393.077 255.866 390.022 258.95C388.564 260.422 387.851 262.555 387.949 264.609C388.032 266.358 388.743 267.913 390.063 269.074C391.838 270.635 394.035 270.972 396.284 271.307C384.371 285.334 371.516 295.011 353.849 300.792C350.227 301.977 343.858 302.722 341.033 305.036C338.264 307.304 337.779 312.06 338.062 315.414C338.354 318.885 339.394 322.243 339.683 325.731C340.657 337.474 340.292 351.294 338.949 363.002C337.937 371.826 336.531 380.611 335.368 389.417C334.839 393.42 334.007 397.59 334.022 401.625C334.032 404.438 334.856 406.871 337.047 408.724C340.646 411.769 346.924 411.777 347.404 417.507C347.526 418.952 347.452 420.92 346.44 422.075C345.162 423.536 342.431 423.635 340.641 423.935C339.997 421.369 339.25 418.771 336.871 417.254C335.655 416.465 334.163 416.222 332.759 416.585C331.006 417.029 329.657 418.326 328.757 419.852C328.09 420.983 327.617 422.27 327.175 423.502C321.723 423.735 315.369 424.54 311.012 420.548C306.742 416.635 306.266 409.239 306.135 403.841C306.007 398.607 306.393 393.348 306.682 388.125C306.866 384.809 307.362 381.12 306.749 377.835C306.417 376.051 305.693 374.314 304.361 373.044C302.991 371.736 300.895 370.986 299.007 371.045C296.928 371.11 294.849 372.146 293.504 373.73C289.094 378.923 289.156 405.134 289.985 412.598C290.371 416.061 291.012 419.565 292.053 422.896C290.308 422.964 288.555 423.069 286.81 423.027C287.009 416.845 286.592 410.757 282.112 406.033C280.291 404.114 278.036 402.715 276.048 400.991L275.965 400.653C274.723 395.49 274.669 389.704 274.338 384.408C274.174 381.779 274.217 378.911 273.388 376.392C272.845 374.743 271.856 373.212 270.378 372.26C268.733 371.2 266.755 370.961 264.876 371.462C262.722 372.036 260.993 373.349 259.948 375.324C257.004 380.884 257.7 400.579 259.736 406.643C260.237 408.185 261.041 409.611 262.101 410.838C264.068 413.081 270.533 417.278 268.664 420.751C268.127 421.748 266.829 422.698 265.725 422.939C264.779 423.145 263.651 423.037 262.683 423.015C261.414 420.75 260.051 417.81 257.31 417.058C256.006 416.7 254.711 416.916 253.581 417.657C251.603 418.956 250.645 421.119 249.831 423.241C244.432 422.97 236.13 423.355 232.246 418.894C227.456 413.392 225.89 394.336 225.119 387.074C224.72 383.309 224.731 378.999 223.198 375.503C222.008 372.789 219.269 370.431 216.272 370.084C214.403 369.868 212.453 370.367 211.011 371.6C208.978 373.336 208.339 375.994 208.209 378.555C207.797 386.724 209.826 399.392 211.164 407.639C211.655 410.667 214.385 419.804 213.935 422.11C211.472 423.565 179.03 423.099 173.893 422.767C170.442 422.544 166.982 422.167 163.627 421.305C157.291 419.678 152.42 416.596 149.101 410.875C141.005 396.922 142.303 375.101 146.424 359.858C149.686 347.814 155.208 336.5 162.694 326.517C164.917 323.556 167.171 320.515 170.454 318.651C174.911 316.12 178.608 315.53 180.313 309.944C180.944 307.875 181.041 305.508 180.01 303.541C178.591 300.834 166.014 298.097 162.518 296.849C151.843 293.062 142.118 287.005 134.011 279.095C131.116 276.27 128.491 273.177 125.703 270.25C128.852 270.266 133.559 270.765 135.91 268.29C137.123 267.015 137.388 265.242 137.271 263.548C137.131 261.534 136.407 259.647 134.825 258.334C130.736 254.941 122.318 255.996 117.299 256.367C115.873 252.591 114.459 248.822 113.193 244.988C117.286 245.13 125.21 246.614 128.32 243.85C129.712 242.613 130.537 240.593 130.599 238.749C130.65 237.218 130.098 235.837 129.017 234.75C124.965 230.679 114.664 230.045 109.061 229.172C106.32 208.429 109.414 188.019 116.143 168.346C117.319 164.908 118.787 161.525 120.295 158.22C122.413 153.581 126.112 148.129 125.666 142.837C123.674 135.643 121.628 128.603 120.298 121.246C117.683 106.775 114.399 69.2138 119.863 55.8976Z"/>
	<path fill="#FEBF94" d="M119.863 55.8976C126.49 57.629 135.442 63.3293 141.429 66.9509C148.408 71.1729 155.451 75.3654 162.247 79.881C167.315 83.2481 172.232 86.8695 177.17 90.4244C177.057 90.5242 176.946 90.6257 176.832 90.7238C175.479 91.8893 173.542 92.727 171.992 93.6604C168.58 95.6773 165.247 97.8233 161.999 100.094C149.304 109.313 138.523 120.913 130.255 134.247C128.617 136.879 126.611 139.895 125.666 142.837C123.674 135.643 121.628 128.603 120.298 121.246C117.683 106.775 114.399 69.2138 119.863 55.8976Z"/>
	<path fill="#FEBF94" d="M350.512 90.3027C358.326 84.2942 390.456 57.9429 398.585 57.4715C400.259 58.8431 400.323 64.0765 400.54 66.2747C402.463 85.7981 401.639 106.26 398.745 125.648C398.12 129.837 397.126 133.938 396.375 138.099C396.403 137.641 396.419 137.332 396.281 136.89C395.654 134.873 393.038 131.752 391.808 129.856C381.128 113.394 367.215 100.446 350.512 90.3027Z"/>
	<path fill="#182711" d="M207.416 197.55C226.488 197.127 242.267 212.292 242.6 231.365C242.933 250.438 227.693 266.146 208.618 266.388C189.671 266.629 174.092 251.513 173.761 232.567C173.431 213.622 188.473 197.971 207.416 197.55Z"/>
	<path fill="#FEFEFE" d="M202.225 210.183C207.929 209.402 213.177 213.42 213.911 219.13C214.645 224.841 210.584 230.056 204.867 230.742C199.217 231.42 194.077 227.416 193.352 221.772C192.627 216.129 196.587 210.955 202.225 210.183Z"/>
	<path fill="#FEFEFE" d="M219.166 240.344C220.876 240.007 222.635 240.618 223.767 241.943C224.899 243.268 225.229 245.101 224.63 246.737C224.03 248.374 222.595 249.56 220.875 249.84C218.275 250.264 215.816 248.525 215.35 245.932C214.883 243.34 216.582 240.853 219.166 240.344Z"/>
	<path fill="#182711" d="M335.791 197.61C343.158 197.405 350.719 199.474 356.747 203.766C364.25 209.109 368.956 218.054 370.376 227.043C371.824 236.208 369.516 246.262 363.989 253.75C358.408 261.311 350.612 264.605 341.562 265.969C332.167 266.488 323.58 264.479 316.354 258.143C309.848 252.438 306.228 244.242 305.723 235.66C305.135 225.682 307.912 215.013 314.657 207.441C320.125 201.302 327.659 198.087 335.791 197.61Z"/>
	<path fill="#FEFEFE" d="M329.057 211.625C334.135 210.74 338.974 214.12 339.89 219.192C340.807 224.263 337.458 229.124 332.392 230.073C327.281 231.03 322.367 227.644 321.442 222.527C320.517 217.41 323.934 212.517 329.057 211.625Z"/>
	<path fill="#FEFEFE" d="M347.007 240.856C349.545 240.034 352.267 241.439 353.068 243.984C353.868 246.529 352.44 249.239 349.887 250.017C347.366 250.786 344.697 249.379 343.906 246.864C343.116 244.35 344.5 241.669 347.007 240.856Z"/>
	<path fill="#182711" d="M275.15 252.068C275.931 252.007 276.714 251.976 277.498 251.975C279.979 251.979 282.924 251.955 284.757 253.921C288.138 257.547 284.162 261.807 284.152 265.561C284.141 270.041 292.081 274.343 295.081 277.549C296.716 279.297 298.156 281.451 297.989 283.951C297.851 286.018 296.55 288.154 294.971 289.452C288.275 294.956 282.27 283.595 278.05 283.522C277.921 283.519 277.793 283.528 277.665 283.531C273.332 285.536 269.915 289.036 265.204 290.377C263.037 290.994 260.607 291.087 258.611 289.9C257.059 288.977 255.674 287.161 255.304 285.38C253.801 278.148 267.806 273.755 270.764 268.5C272.513 265.393 268.768 261.931 268.121 258.909C267.836 257.576 268.01 256.273 268.818 255.151C270.403 252.947 272.653 252.5 275.15 252.068Z"/>
	<path fill="#182711" d="M225.547 161.293C227.105 161.144 228.353 161.394 229.66 162.301C231.201 163.371 232.624 164.959 232.919 166.871C233.35 169.668 231.53 172.485 229.883 174.601C221.171 185.787 206.568 188.327 193.34 189.975C192.071 190.01 190.732 190.109 189.494 189.781C188.028 189.393 186.961 188.481 186.234 187.159C185.69 186.17 185.407 185.044 185.775 183.943C186.832 180.786 191.482 179.402 194.357 178.549C201.725 176.362 209.053 174.171 215.163 169.286C218.617 166.526 221.492 163.223 225.547 161.293Z"/>
	<path fill="#182711" d="M320.207 162.275C324.695 162.958 330.567 170.095 335.108 172.585C339.547 175.018 344.658 176.655 349.463 178.186C352.161 179.045 355.149 179.784 357.635 181.17C358.985 181.922 360.24 182.945 360.632 184.512C360.885 185.52 360.636 186.562 360.093 187.432C359.113 189.005 357.666 189.632 355.936 190.066C348.697 190.489 334.038 187.535 327.805 184.198C322.865 181.554 316.6 176.42 315.023 170.793C314.524 169.012 314.59 166.892 315.561 165.274C316.585 163.566 318.333 162.703 320.207 162.275Z"/>
	<path fill="#FEFEFE" d="M89.8715 341.892C89.9763 341.905 90.0824 341.91 90.1858 341.93C95.9083 343.086 96.7312 360.02 97.2262 364.552C97.4636 366.927 97.8306 369.287 98.3257 371.621C99.5294 377.198 101.531 382.617 104.539 387.479C109.691 395.804 117.598 401.928 127.198 404.164L130.579 416.022C127.674 416.012 124.795 415.602 121.927 415.184C110.511 413.387 100.051 408.793 92.3928 399.945C84.0028 390.25 78.9656 378.448 79.9159 365.5C80.5177 357.301 83.4375 347.447 89.8715 341.892Z"/>
</svg>
