<?xml version="1.0" encoding="utf-8" ?>
<svg xmlns="http://www.w3.org/2000/svg" xmlns:xlink="http://www.w3.org/1999/xlink" width="537" height="553">
	<path fill="#F2E8D6" d="M0 0L537 0L537 552.527C536.797 552.642 536.621 552.758 536.401 552.832C534.679 553.411 522.189 553 519.618 553L471.951 553.003L234.217 553.003L79.2868 553.003L27.8519 553C19.1916 553 10.4775 553.213 1.82287 552.979C1.08807 552.959 0.649819 552.896 0 552.527L0 0Z"/>
	<path fill="#383D2E" d="M341.973 127.336C347.651 122.174 352.845 116.399 358.345 111.033C369.499 100.153 408.501 62.5787 423.533 63.1138C426.258 63.2107 428.363 64.6879 430.121 66.686C432.322 69.1891 433.654 72.4265 434.572 75.5917C437.032 84.0786 437.734 93.2758 438.543 102.043C440.632 124.691 440.986 147.489 441.105 170.222C441.137 174.804 441.123 179.385 441.061 183.966C441.025 187.13 440.808 190.465 441.197 193.607C441.844 198.829 445.268 204.395 446.963 209.464C452.526 226.107 455.43 244.107 453.995 261.658C453.782 264.258 453.54 266.878 453.183 269.462C458.315 270.125 469.287 270.628 472.518 274.85C474.049 276.85 474.375 279.529 473.956 281.956C473.569 284.201 472.499 286.516 470.532 287.791C467 290.08 454.222 287.215 449.512 286.727C447.209 293.631 444.557 300.221 441.353 306.76C447.345 308.931 458.865 312.079 461.766 318.248C462.76 320.362 462.896 322.809 461.997 324.981C461.284 326.705 459.964 327.984 458.201 328.605C452.041 330.777 438.917 322.749 432.81 320.633C420.803 334.406 411.69 342.451 395.473 351.072C396.746 373.18 394.355 394.988 390.96 416.804C388.845 430.399 385.729 444.319 386.033 458.148C393.022 462.213 397.841 467.665 399.957 475.622C401.596 481.787 401.489 488.897 398.141 494.49C395.593 498.746 390.823 502.828 386.043 504.293C384.168 505.036 382.121 505.372 380.122 505.56C375.508 505.995 370.711 505.762 366.072 505.756C360.577 505.749 354.974 505.947 349.5 505.471C347.291 505.28 345.195 504.915 343.055 504.344C340.202 503.721 337.656 502.162 334.835 501.536C331.206 500.732 312.386 500.576 308.788 501.369C306.213 501.937 304.043 503.708 301.369 504.279L301.06 504.342C295.189 505.925 271.628 505.915 264.767 505.414C262.627 505.258 260.586 504.923 258.515 504.366C254.022 503.743 249.804 500.668 246.45 497.815C243.793 500.821 241.19 503.11 237.299 504.306C235.208 505.155 232.766 505.422 230.534 505.595C223.494 506.141 216.185 505.761 209.119 505.756C201.907 505.751 194.476 506.1 187.284 505.562C184.735 505.371 182.287 504.951 179.809 504.332C176.998 503.698 174.046 502.499 171.205 502.176C168.216 501.835 165.108 502.022 162.099 502.044C157.338 502.079 152.563 502.048 147.82 501.596C124.001 499.324 98.375 487.57 85.332 466.868C75.8492 451.816 74.0068 433.491 77.9479 416.375C81.3308 401.683 91.6911 376.94 104.549 368.777C107.472 366.921 110.909 365.96 114.355 366.739C117.835 367.525 120.769 369.804 122.58 372.847C132.927 390.229 119.486 416.864 129.064 437.406C131.272 442.142 134.651 446.058 139.209 448.658C139.123 442.266 139.16 435.926 139.759 429.557C141.953 406.196 149.988 381.507 163.737 362.344C166.739 358.161 170.132 354.376 173.668 350.645C160.176 343.573 149.069 332.497 139.809 320.592C133.934 323.108 120.183 330.785 114.348 328.575C112.583 327.897 111.174 326.524 110.451 324.777C109.558 322.656 109.674 320.127 110.615 318.044C113.295 312.11 123.388 309.673 129.082 307.68L131.087 306.981C129.002 303.06 127.082 299.135 125.396 295.024C124.3 292.354 123.394 289.579 122.232 286.942C116.856 287.316 108.095 289.461 103.238 288.869C101.746 288.687 100.363 288.2 99.2329 287.184C97.4137 285.549 96.8441 283.025 96.7788 280.67C96.7182 278.486 97.179 276.398 98.7102 274.76C103.042 270.127 113.238 270.707 119.152 269.688C115.877 250.506 118.248 230.475 124.489 212.119C126.376 206.572 129.94 201.05 130.51 195.206C131.071 189.45 130.657 183.289 130.73 177.494C130.991 156.717 130.021 82.9063 140.422 68.2023C141.942 66.0547 143.837 64.5059 146.486 64.0414C155.335 62.4893 170.097 73.4783 177.074 78.5896C196.633 92.9172 214.248 109.967 230.772 127.66C258.733 118.723 313.461 119.516 341.973 127.336Z"/>
	<path fill="#24291E" d="M179.809 504.332C181.445 503.227 200.925 504.093 204.603 504.116C208.597 504.142 235.471 503.54 236.735 503.979C237.053 504.09 237.07 504.128 237.299 504.306C235.208 505.155 232.766 505.422 230.534 505.595C223.494 506.141 216.185 505.761 209.119 505.756C201.907 505.751 194.476 506.1 187.284 505.562C184.735 505.371 182.287 504.951 179.809 504.332Z"/>
	<path fill="#24291E" d="M343.055 504.344C343.608 504.002 343.941 503.923 344.589 503.901C351.221 503.675 357.935 504.064 364.577 504.058L378.39 503.997C380.507 503.976 383.54 503.539 385.562 504.04C385.784 504.095 385.873 504.174 386.043 504.293C384.168 505.036 382.121 505.372 380.122 505.56C375.508 505.995 370.711 505.762 366.072 505.756C360.577 505.749 354.974 505.947 349.5 505.471C347.291 505.28 345.195 504.915 343.055 504.344Z"/>
	<path fill="#24291E" d="M258.515 504.366C260.715 503.668 299.728 503.742 301.06 504.342C295.189 505.925 271.628 505.915 264.767 505.414C262.627 505.258 260.586 504.923 258.515 504.366Z"/>
	<path fill="#F2E8D6" d="M151.845 184.348C151.807 184.263 151.761 184.182 151.731 184.094C151.036 182.085 151.214 175.163 151.11 172.482C150.142 147.662 149.427 122.421 152.295 97.7047C152.601 95.0693 152.591 91.4633 153.789 89.1219C154.29 88.9571 154.583 88.9058 155.115 89.0067C157.071 89.3769 159.31 91.1227 160.986 92.2088C177.353 102.81 193.113 119.547 206.242 133.967C208.276 136.2 211.292 138.589 212.78 141.189C216.674 143.297 219.032 148.327 224.863 148.637C228.768 148.845 236.903 146.01 241.196 145.094C245.683 144.136 250.221 143.518 254.776 142.988C277.939 140.294 302.23 140.313 325.293 143.998C331.397 144.973 337.281 146.935 343.34 148.011C350.52 149.287 352.388 144.541 357.457 141.098C357.517 141.057 357.578 141.018 357.639 140.978C359.91 138.28 362.572 135.809 364.966 133.203C380.673 116.103 397.564 100.882 417.396 88.6916C419.94 95.3782 419.857 102.911 420.302 109.973C421.367 126.127 421.682 142.322 421.246 158.506C421.004 165.481 420.515 172.433 420.139 179.4C420.029 181.429 419.719 183.575 419.694 185.589C420.492 188.959 420.356 192.489 421.339 195.843C422.859 201.027 425.948 205.953 427.83 211.075C434.626 229.572 437.609 249.808 434.119 269.373C428.461 269.823 411.917 270.403 408.177 274.411C406.385 276.332 406.107 279.221 406.274 281.734C406.398 283.605 407.071 285.424 408.582 286.61C412.491 289.679 424.246 287.006 429.229 286.507C427.398 291.542 425.117 296.401 422.415 301.027C417.199 299.365 409.214 296.598 403.908 298.993C401.902 299.898 400.623 301.595 399.942 303.653C399.357 305.421 399.237 307.332 400.17 309.002C402.287 312.79 408.9 313.973 412.759 315.046C407.009 321.585 400.467 327.416 392.88 331.749C389.01 333.96 382.632 335.893 379.67 339.006C375.972 342.891 377.552 361.156 377.517 366.854C377.524 379.93 376.536 392.988 374.56 405.914C372.333 420.264 369.891 434.422 368.372 448.885C367.939 453.006 367.023 457.649 367.305 461.757C367.766 468.461 374.557 471.293 378.948 475.196C380.754 476.801 382.009 478.816 382.071 481.284C382.109 482.809 381.864 484.728 380.724 485.851C379.106 487.444 376.314 487.187 374.229 487.176C373.805 484.15 373.656 480.534 371.633 478.097C370.426 476.622 368.672 475.699 366.773 475.542C365.082 475.416 363.419 475.896 362.135 477.026C359.348 479.479 359.578 483.747 359.377 487.149C354.44 487.204 347.673 487.953 343.612 484.626C335.094 477.647 337.332 451.245 337.917 440.933C338.148 436.861 338.793 432.292 338.266 428.245C337.881 425.293 336.664 422.084 334.161 420.284C332.498 419.088 330.29 418.718 328.297 419.136C326.148 419.586 324.605 421.087 323.528 422.932C319.996 428.986 319.788 461.668 320.471 469.808C320.891 474.804 321.842 479.614 323.029 484.477C321.394 484.426 319.754 484.424 318.118 484.399C317.792 465.105 307.596 467.278 305.735 460.308C305.034 457.686 304.91 454.847 304.706 452.147C304.182 445.215 304.293 436.489 302.653 429.835C301.807 426.397 299.76 421.541 296.557 419.728C294.941 418.83 293.025 418.644 291.266 419.214C289.383 419.839 287.786 421.52 287.003 423.312C284.414 429.236 286.235 464.049 289.401 470.182C291.446 474.145 296.663 475.66 298.052 479.756C298.701 481.671 298.39 484.081 297.541 485.884C295.508 487.088 291.747 486.847 289.392 486.974C289.058 484.542 288.579 481.954 287.31 479.817C286.339 478.184 284.894 476.928 283.024 476.472C281.24 476.036 279.269 476.155 277.733 477.23C274.718 479.34 274.519 483.781 273.981 487.109C271.489 487.115 268.983 487.151 266.494 487.03C264.69 486.942 262.811 486.706 261.162 485.929C258.824 484.826 257.01 482.627 255.637 480.488C247.857 468.37 250.118 453.831 246.907 440.496C244.916 432.231 241.292 424.516 235.499 418.24C231.571 413.984 226.587 409.276 220.413 409.16C218.167 409.118 215.836 409.899 214.268 411.556C212.922 412.979 212.424 414.921 212.493 416.844C212.644 421.046 215.608 423.186 218.477 425.764C230.134 436.239 232.297 454.126 233.057 468.976C228.491 467.043 223.227 465.6 218.33 467.247C215.831 468.087 213.68 469.822 212.518 472.214C211.624 474.053 211.47 476.118 212.239 478.029C214.527 483.706 222.171 484.613 227.181 486.741C215.316 487.215 203.188 487.617 191.328 486.992C182.714 486.539 173.424 484.372 167.46 477.656C153.904 462.393 156.467 429.887 161.279 411.243C163.88 400.919 167.808 390.976 172.964 381.661C176.705 374.912 181.284 368.662 186.591 363.061C189.457 360.079 192.872 357.354 195.253 353.96C196.469 352.227 197.274 350.23 197.353 348.096C197.436 345.849 196.588 343.108 195.051 341.434C191.588 337.663 184.285 334.405 179.814 331.523C172.727 326.954 166.004 320.932 160.418 314.626C161.778 314.348 163.14 314.077 164.503 313.814C167.639 313.199 171.664 312.524 173.512 309.592C174.567 307.916 174.557 305.984 174.09 304.116C173.59 302.114 172.526 300.314 170.673 299.305C165.672 296.583 155.428 299.814 150.207 301.342C147.701 296.673 145.386 292.049 143.45 287.111C148.363 287.199 159.855 289.654 163.611 286.765C165.291 285.473 165.986 283.542 166.166 281.486C166.365 279.219 165.992 276.889 164.434 275.139C160.322 270.519 144.348 270.197 138.08 269.73C134.608 250.084 137.406 230.828 144.138 212.209C145.823 207.549 148.549 203.23 149.986 198.502C151.381 193.913 150.499 188.945 151.845 184.348Z"/>
	<path fill="#7A5840" d="M357.639 140.978C359.91 138.28 362.572 135.809 364.966 133.203C380.673 116.103 397.564 100.882 417.396 88.6916C419.94 95.3782 419.857 102.911 420.302 109.973C421.367 126.127 421.682 142.322 421.246 158.506C421.004 165.481 420.515 172.433 420.139 179.4C420.029 181.429 419.719 183.575 419.694 185.589C419.618 185.44 419.544 185.289 419.465 185.142C417.817 182.053 414.68 179.054 412.31 176.468C397.893 160.737 378.076 147.393 357.639 140.978Z"/>
	<path fill="#7A5840" d="M151.845 184.348C151.807 184.263 151.761 184.182 151.731 184.094C151.036 182.085 151.214 175.163 151.11 172.482C150.142 147.662 149.427 122.421 152.295 97.7047C152.601 95.0693 152.591 91.4633 153.789 89.1219C154.29 88.9571 154.583 88.9058 155.115 89.0067C157.071 89.3769 159.31 91.1227 160.986 92.2088C177.353 102.81 193.113 119.547 206.242 133.967C208.276 136.2 211.292 138.589 212.78 141.189C194.127 148.155 176.3 157.662 162.294 172.069C158.513 175.958 155.239 180.135 151.845 184.348Z"/>
	<path fill="#7A5840" d="M275.749 331.254C271.279 331.295 266.495 330.633 262.054 330.108C240.686 327.584 219.871 320.848 203.4 306.516C191.083 295.799 181.758 281.458 180.732 264.796C179.679 249.217 184.934 233.868 195.316 222.206C214.821 200.128 246.947 193.04 275.091 191.404C308.111 189.484 347.177 193.716 372.855 216.61C384.954 227.397 392.675 241.131 393.564 257.523C394.517 273.392 389.034 288.975 378.353 300.75C359.196 321.832 330.383 329.466 302.869 330.83C302.834 330.939 302.797 331.047 302.765 331.157C302.418 332.338 302.635 334.152 302.634 335.402C302.626 342.666 303.891 351.977 296.532 356.227C293.278 358.106 289.307 358.818 285.667 357.754C282.178 356.734 278.639 354.343 276.922 351.093C275.92 349.196 275.558 347.112 275.451 344.993C275.249 341.018 275.61 337.024 275.998 333.071C276.017 332.874 276.184 331.625 276.148 331.573C276.051 331.433 275.882 331.361 275.749 331.254Z"/>
	<path fill="#383D2E" d="M277.12 329.281C275.464 329.235 273.877 328.363 272.714 327.192C271.259 325.726 270.833 323.139 270.874 321.164C271.042 312.96 285.716 299.364 280.69 294.365C279.667 293.347 278.146 292.85 276.834 292.319C271.011 289.962 266.802 287.023 266.433 280.115C266.208 275.9 267.891 272.015 270.711 268.94C274.526 264.781 280.133 263.582 285.592 263.414C292.856 263.191 301.591 263.784 307.121 269.072C309.698 271.535 311.352 275.124 311.461 278.702C311.571 282.305 310.073 285.445 307.58 287.973C304.549 291.046 301.607 292.155 297.499 293.236C296.792 297.522 295.653 301.269 298.397 305.046C302.172 310.243 310.187 315.455 309.085 322.593C308.708 324.945 307.427 327.056 305.516 328.477C304.671 329.112 304.221 329.332 303.642 330.266L302.625 330.741L302.869 330.83C302.834 330.939 302.797 331.047 302.765 331.157C302.418 332.338 302.635 334.152 302.634 335.402C302.626 342.666 303.891 351.977 296.532 356.227C293.278 358.106 289.307 358.818 285.667 357.754C282.178 356.734 278.639 354.343 276.922 351.093C275.92 349.196 275.558 347.112 275.451 344.993C275.249 341.018 275.61 337.024 275.998 333.071C276.017 332.874 276.184 331.625 276.148 331.573C276.051 331.433 275.882 331.361 275.749 331.254C276.184 330.805 276.251 330.261 276.419 329.671L277.12 329.281Z"/>
	<path fill="#96ACA5" d="M277.12 329.281L277.479 329.138C279.488 328.317 280.921 327.312 282.359 325.665C284.102 323.669 286.82 316.552 290.207 318.124C294.722 320.219 294.721 330.915 302.625 330.741L302.869 330.83C302.834 330.939 302.797 331.047 302.765 331.157C302.418 332.338 302.635 334.152 302.634 335.402C302.626 342.666 303.891 351.977 296.532 356.227C293.278 358.106 289.307 358.818 285.667 357.754C282.178 356.734 278.639 354.343 276.922 351.093C275.92 349.196 275.558 347.112 275.451 344.993C275.249 341.018 275.61 337.024 275.998 333.071C276.017 332.874 276.184 331.625 276.148 331.573C276.051 331.433 275.882 331.361 275.749 331.254C276.184 330.805 276.251 330.261 276.419 329.671L277.12 329.281Z"/>
	<path fill="#383D2E" d="M223.755 229.094C228.693 229.384 232.928 230.406 237.03 233.286C242.928 237.427 246.556 243.642 247.775 250.679C249.071 258.162 248.002 265.175 243.557 271.459C239.25 277.549 233.359 280.249 226.168 281.459C225.988 281.476 225.807 281.492 225.626 281.505C219.648 281.938 214.625 280.268 210.124 276.278C204.729 271.591 201.471 264.912 201.097 257.774C200.65 250.22 203.159 242.486 208.223 236.807C212.295 232.24 217.661 229.45 223.755 229.094Z"/>
	<path fill="#383D2E" d="M350.222 229.334C354.932 228.79 360.219 229.716 364.16 232.438C370.155 236.58 374.541 243.424 375.833 250.586C377.178 258.049 375.248 266.117 370.857 272.272C367.153 277.464 361.822 280.254 355.635 281.314C349.768 281.489 344.345 280.567 339.435 277.117C334.092 273.362 330.346 266.666 329.297 260.289C328.069 252.822 329.803 245.576 334.218 239.437C338.175 233.935 343.507 230.393 350.222 229.334Z"/>
	<path fill="#7A5840" d="M108.75 392.311C109.458 393.514 108.353 398.318 108.269 399.962C107.841 408.333 107.574 417.029 108.057 425.4C108.407 431.472 110.026 438.004 112.35 443.626C116.457 453.564 123.509 462.461 133.43 467.039C136.518 468.464 139.845 469.219 142.969 470.539L143.252 470.661C144.639 474.181 145.865 477.748 147.089 481.327C143.109 480.855 139.15 480.224 135.221 479.434C121.142 475.632 111.12 470.481 102.378 458.384C94.6342 447.669 92.4629 434.984 94.6215 422.109C96.1554 412.96 100.901 397.887 108.75 392.311Z"/>
</svg>
